<?xml version="1.0" encoding="utf-8"?>
<!-- Generator: Adobe Illustrator 16.0.0, SVG Export Plug-In . SVG Version: 6.00 Build 0)  -->
<!DOCTYPE svg PUBLIC "-//W3C//DTD SVG 1.1//EN" "http://www.w3.org/Graphics/SVG/1.1/DTD/svg11.dtd">
<svg version="1.1" id="Capa_1" xmlns="http://www.w3.org/2000/svg" xmlns:xlink="http://www.w3.org/1999/xlink" x="0px" y="0px"
	 width="512px" height="512px" viewBox="0 0 512 512" enable-background="new 0 0 512 512" xml:space="preserve">
<g>
	<path fill="#BFBFBF" d="M290.565,72.245c0,23.874-19.353,43.244-43.23,43.244c-23.875,0-43.247-19.37-43.247-43.244
		C204.088,48.37,223.459,29,247.335,29C271.213,29,290.565,48.37,290.565,72.245z M247.335,421.083
		c-14.33,0-25.958,11.628-25.958,25.956c0,14.331,11.629,25.961,25.958,25.961c14.334,0,25.962-11.629,25.962-25.961
		C273.297,432.713,261.664,421.083,247.335,421.083z M159.406,107.323c5.492-3.152,7.405-10.248,4.196-15.737
		c-3.153-5.518-10.219-7.406-15.736-4.222c-5.493,3.179-7.408,10.22-4.197,15.738C146.822,108.619,153.891,110.533,159.406,107.323z
		 M326.603,396.951c-13.741,7.969-18.466,25.619-10.528,39.392c7.941,13.799,25.623,18.492,39.359,10.556
		c13.795-7.964,18.523-25.592,10.588-39.392C358.021,393.743,340.401,389.014,326.603,396.951z M77.846,178.417
		c6.869,3.969,15.707,1.604,19.68-5.267c3.969-6.895,1.602-15.709-5.267-19.707c-6.899-3.941-15.708-1.605-19.708,5.294
		C68.58,165.633,70.946,174.445,77.846,178.417z M425.484,325.89c-15.147-8.759-34.572-3.577-43.305,11.597
		c-8.781,15.152-3.604,34.552,11.603,43.306c15.147,8.758,34.572,3.581,43.3-11.603C445.81,354.019,440.628,334.643,425.484,325.89z
		 M77.224,259.646c0-9.548-7.744-17.291-17.286-17.291c-9.546,0-17.287,7.743-17.287,17.291c0,9.539,7.741,17.282,17.287,17.282
		C69.512,276.928,77.224,269.185,77.224,259.646z M434.718,225.04c-19.088,0-34.576,15.514-34.576,34.606
		c0,19.083,15.488,34.595,34.576,34.595c19.087,0,34.631-15.511,34.631-34.595C469.29,240.524,453.805,225.04,434.718,225.04z
		 M74.973,335.854c-9.657,5.578-12.982,17.936-7.405,27.567c5.573,9.658,17.934,12.951,27.564,7.375
		c9.657-5.547,12.95-17.904,7.377-27.532C96.931,333.604,84.602,330.276,74.973,335.854z M428.355,198.378
		c17.964-10.331,24.044-33.28,13.736-51.187c-10.418-17.903-33.277-24.044-51.241-13.684c-17.903,10.336-24.039,33.28-13.684,51.187
		C387.531,202.602,410.448,208.738,428.355,198.378z M165.178,401.96c-11.035-6.39-25.168-2.613-31.531,8.453
		c-6.336,11.007-2.562,25.14,8.446,31.475c11.037,6.358,25.17,2.592,31.533-8.418C179.989,422.432,176.215,408.327,165.178,401.96z
		 M361.232,62.388c-19.366-11.119-44.035-4.503-55.128,14.784c-11.146,19.286-4.557,44.005,14.757,55.153
		c19.256,11.091,43.979,4.505,55.124-14.809C387.136,98.229,380.494,73.541,361.232,62.388z M261.748,267.974V144.32h-28.829
		v106.988l-92.656,53.518l14.414,24.944L261.748,267.974z"/>
</g>
</svg>
