<?xml version="1.0" encoding="utf-8"?>
<!-- Generator: Adobe Illustrator 16.0.0, SVG Export Plug-In . SVG Version: 6.00 Build 0)  -->
<!DOCTYPE svg PUBLIC "-//W3C//DTD SVG 1.1//EN" "http://www.w3.org/Graphics/SVG/1.1/DTD/svg11.dtd">
<svg version="1.1" id="Capa_1" xmlns="http://www.w3.org/2000/svg" xmlns:xlink="http://www.w3.org/1999/xlink" x="0px" y="0px"
	 width="612px" height="612px" viewBox="0 0 612 612" enable-background="new 0 0 612 612" xml:space="preserve">
<g>
	<path fill="#BFBFBF" d="M564.5,339.788v174.561c0,6.955-5.638,12.591-12.594,12.591h-54.712c-6.956,0-12.594-5.638-12.594-12.591
		V491.93c-0.806,2.457-2.557,4.546-5.087,4.958c-54.724,8.927-112.828,40.363-170.59,40.363
		c-54.155,0-124.358-11.019-163.661-51.201c-43.824-44.808-81.566-85.367-91.273-99.225c-19.706-28.134,9.775-52.273,30.99-30.008
		c18.009,18.9,57.056,60.433,86.836,80.77c4.352,18.831,29.582,36.832,55.235,36.832s146.21,0,146.21,0s-9.533-12.534-21.064-13.642
		c0,0-108.227,0-124.206,0c-15.979,0-43.24-13.076-43.24-42.13c0-34.863,29.44-42.127,43.24-42.127c10.437,0,76.1,0,107.5,0
		c0,0,41.402-29.055,80.623-29.055c30.113,0,54.656,10.701,64.437,15.674c1.959,0.995,3.354,2.716,4.051,4.719v-28.071
		c0-6.955,5.638-12.593,12.593-12.593h54.714C558.862,327.193,564.5,332.832,564.5,339.788z M177.515,393.679
		c-6.834-11.498-57.418-54.396-74.729-61.338c-14.159-5.68-17.373,6.636-17.373,6.636s74.844,65.036,80.938,70.332
		C173.665,407.524,180.665,398.981,177.515,393.679z M168.865,279.078V121.89c0-26.035,21.105-47.141,47.14-47.141h72.034v35.482
		h33.445V74.749h71.595c26.032,0,47.141,21.105,47.141,47.14v157.189c0,26.035-21.106,47.141-47.141,47.141h-72.27v-28.047h-31.394
		v28.047h-73.411C189.97,326.218,168.865,305.113,168.865,279.078z M259.994,195.766c0.973,0,15.821,0,33.328,0v71.547h25.683
		v-71.547c18.092,0,33.327,0,33.327,0l-46.168-55.037L259.994,195.766z M191.936,363.546c-6.834-11.5-41.706-38.683-59.016-45.627
		c-14.159-5.678-17.373,6.636-17.373,6.636s59.13,49.323,65.226,54.619C188.086,377.388,195.086,368.845,191.936,363.546z"/>
</g>
</svg>
