<?xml version="1.0" encoding="utf-8"?>
<!-- Generator: Adobe Illustrator 16.0.0, SVG Export Plug-In . SVG Version: 6.00 Build 0)  -->
<!DOCTYPE svg PUBLIC "-//W3C//DTD SVG 1.1//EN" "http://www.w3.org/Graphics/SVG/1.1/DTD/svg11.dtd">
<svg version="1.1" id="Layer_1" xmlns="http://www.w3.org/2000/svg" xmlns:xlink="http://www.w3.org/1999/xlink" x="0px" y="0px"
	 width="277px" height="60px" viewBox="0 0 277 60" enable-background="new 0 0 277 60" xml:space="preserve">
<g>
	<g>
		<path fill="#FFFFFF" d="M9.541,1.45h38.683c0,0,4.617,0.749,5.486,5.171c0.867,4.423,0,0,0,0l0.148,18.213l-0.042,21.421
			c0,0,0.439,7.524-1.524,9.703c-1.964,2.179,0,0,0,0s-0.75,3.897-14.02,2.474c-13.27-1.422,0,0,0,0H9.541
			c0,0-4.875-0.813-5.634-7.06c-0.76-6.244,0,0,0,0V6.795C3.907,6.795,6.828,1.048,9.541,1.45"/>
	</g>
	<g>
		<ellipse fill="#FFFFFF" cx="64.722" cy="34.539" rx="14.288" ry="13.876"/>
	</g>
	<g>
		<path fill="#0090C6" d="M15.324,38.854c0,0,5.284,1.92,7.195,1.071c1.913-0.848,10.54-4.719,11.283-6.079
			c0.743-1.359,7.896-2.436,8.846-1.006c0.95,1.428-0.569,7.027-0.838,7.514c-0.269,0.485-4.633,7.229-8.163,7.936
			c-3.529,0.705-10.875,1.007-15.103-3.12C14.319,41.042,15.324,38.854,15.324,38.854"/>
	</g>
	<g>
		<path d="M28.461,49.309c-8.167,0-14.812-6.645-14.812-14.813c0-8.166,6.646-14.81,14.812-14.81c8.167,0,14.811,6.644,14.811,14.81
			C43.271,42.664,36.628,49.309,28.461,49.309z M28.461,20.825c-7.539,0-13.67,6.133-13.67,13.67c0,7.539,6.131,13.671,13.67,13.671
			c7.537,0,13.669-6.132,13.669-13.671C42.13,26.958,35.998,20.825,28.461,20.825z"/>
	</g>
	<g>
		<path d="M37.758,7.877h-0.491c0,0.456-0.184,0.864-0.483,1.165c-0.299,0.299-0.708,0.482-1.163,0.482
			c-0.457,0-0.866-0.184-1.166-0.482c-0.299-0.3-0.481-0.708-0.483-1.165c0.002-0.457,0.184-0.865,0.483-1.165
			c0.299-0.298,0.708-0.482,1.166-0.482c0.455,0,0.864,0.184,1.163,0.482c0.299,0.3,0.483,0.708,0.483,1.165H37.758h0.493
			c-0.001-1.453-1.178-2.63-2.63-2.63c-1.453,0-2.63,1.177-2.63,2.63c0,1.452,1.177,2.63,2.63,2.63c1.452,0,2.629-1.178,2.63-2.63
			H37.758z"/>
	</g>
	<g>
		<path d="M46.095,7.877h-0.491c0,0.456-0.184,0.864-0.483,1.165c-0.299,0.299-0.708,0.482-1.163,0.482
			c-0.457,0-0.866-0.184-1.166-0.482c-0.299-0.3-0.483-0.708-0.483-1.165s0.184-0.865,0.483-1.165
			C43.091,6.414,43.5,6.23,43.958,6.23c0.456,0,0.864,0.184,1.163,0.482c0.299,0.3,0.483,0.708,0.483,1.165H46.095h0.492
			c0-1.453-1.177-2.63-2.629-2.63c-1.453,0-2.631,1.177-2.632,2.63c0.001,1.452,1.179,2.63,2.632,2.63
			c1.452,0,2.629-1.178,2.629-2.63H46.095z"/>
	</g>
	<g>
		<path d="M78.963,34.495h-0.52c-0.001,3.791-1.536,7.218-4.019,9.702c-2.485,2.482-5.911,4.019-9.702,4.02
			c-3.79-0.001-7.217-1.535-9.702-4.02c-2.483-2.484-4.017-5.911-4.017-9.702c0-3.789,1.534-7.215,4.017-9.701
			c2.485-2.483,5.913-4.018,9.702-4.018c3.791,0,7.217,1.535,9.702,4.018c2.483,2.486,4.018,5.912,4.019,9.701H78.963h0.52
			c0-8.151-6.608-14.76-14.761-14.76c-8.151,0-14.761,6.608-14.761,14.76c0,8.153,6.609,14.762,14.761,14.763
			c8.153-0.001,14.761-6.609,14.761-14.763H78.963z"/>
	</g>
	<g>
		<path d="M17.027,8.33h-0.492c0,0.207-0.099,0.407-0.308,0.58c-0.208,0.169-0.518,0.288-0.87,0.287h-2.876
			c-0.353,0-0.663-0.118-0.87-0.287c-0.208-0.172-0.307-0.373-0.307-0.58V7.575c0-0.207,0.099-0.407,0.307-0.58
			c0.208-0.169,0.517-0.288,0.87-0.287h2.876c0.353,0,0.663,0.118,0.87,0.287c0.208,0.173,0.308,0.373,0.308,0.58V8.33H17.027h0.491
			V7.575c0-0.543-0.274-1.023-0.671-1.342c-0.396-0.322-0.921-0.508-1.49-0.509h-2.876c-0.569,0.001-1.093,0.187-1.49,0.509
			c-0.396,0.319-0.671,0.799-0.671,1.342V8.33c0,0.543,0.274,1.022,0.671,1.342c0.397,0.322,0.921,0.507,1.49,0.508h2.876
			c0.569,0,1.094-0.186,1.49-0.508c0.396-0.32,0.671-0.799,0.671-1.342H17.027z"/>
	</g>
	<g>
		<path d="M53.103,43.673l0.062,8.089v-0.005c-0.001,1.644-0.699,3.13-1.842,4.218c-1.143,1.088-2.727,1.766-4.485,1.766h-35.91
			c-1.76,0-3.344-0.678-4.487-1.766S4.602,53.4,4.6,51.757V7.995c0.001-1.643,0.698-3.129,1.841-4.218
			c1.143-1.086,2.727-1.764,4.487-1.764h35.91c1.758,0,3.342,0.677,4.485,1.764c1.143,1.089,1.84,2.575,1.842,4.218v17.257h1.387
			V7.995c0-2.043-0.874-3.896-2.272-5.223c-1.398-1.329-3.325-2.146-5.442-2.146h-35.91c-2.119,0-4.046,0.817-5.443,2.146
			c-1.398,1.327-2.274,3.18-2.272,5.223v43.762C3.211,53.8,4.087,55.652,5.485,56.98c1.396,1.328,3.324,2.146,5.443,2.146h35.91
			c2.117,0,4.043-0.817,5.442-2.146c1.398-1.328,2.272-3.183,2.272-5.226v-0.001L54.49,43.66L53.103,43.673z"/>
	</g>
	<g>
		<polyline points="4.17,14.334 53.551,14.334 53.551,13.294 4.17,13.294 		"/>
	</g>
	<g>
		<path d="M14.824,38.93c0.663-0.102,1.262,0.348,1.858,0.582c0.612,0.236,1.264,0.358,1.909,0.471
			c1.212,0.209,2.494,0.195,3.712,0.031c2.439-0.326,4.461-1.195,6.515-2.521c3.893-2.513,8.115-6.748,13.105-4.667
			c0.513,0.215,0.735-0.621,0.229-0.831c-4.526-1.888-8.557,1.112-12.12,3.626c-2.027,1.429-4.051,2.748-6.494,3.316
			c-1.704,0.396-3.488,0.424-5.207,0.129c-1.286-0.223-2.419-1.172-3.737-0.969C14.047,38.184,14.28,39.014,14.824,38.93z"/>
	</g>
	<g>
		<path d="M43.009,35.334l-0.1-0.07l0.1,0.072V35.334l-0.1-0.07l0.1,0.072c0.007-0.011,0.386-0.533,1.004-1.036
			c0.309-0.253,0.677-0.497,1.083-0.678c0.408-0.179,0.85-0.294,1.321-0.294c0.516,0.002,1.072,0.132,1.687,0.494
			c0.614,0.365,1.283,0.964,1.983,1.904l0.789-0.588c-0.759-1.019-1.52-1.718-2.271-2.162c-0.752-0.447-1.497-0.636-2.188-0.633
			c-0.642,0-1.23,0.157-1.743,0.389c-0.77,0.349-1.377,0.851-1.798,1.268c-0.421,0.418-0.657,0.75-0.67,0.768L43.009,35.334z"/>
	</g>
	<g>
		<path d="M79.058,35.152c0.531,0,1.062,0,1.593,0c0.793,0,0.793-1.229,0-1.229c-0.531,0-1.062,0-1.593,0
			C78.265,33.925,78.265,35.152,79.058,35.152z"/>
	</g>
	<g>
		<path d="M12.056,34.75c0.531,0,1.062,0,1.593,0c0.793,0,0.793-1.229,0-1.229c-0.531,0-1.062,0-1.593,0
			C11.263,33.521,11.263,34.75,12.056,34.75z"/>
	</g>
	<g enable-background="new    ">
		<path fill="#FFFFFF" d="M97.177,42.021v2.331H85.604V25.12h2.692v16.901H97.177z"/>
		<path fill="#FFFFFF" d="M104.504,29.561c1.036,0,1.91,0.135,2.623,0.402c0.712,0.269,1.286,0.647,1.721,1.138
			c0.434,0.49,0.744,1.073,0.93,1.749c0.185,0.675,0.277,1.42,0.277,2.233v9.02c-0.222,0.037-0.532,0.088-0.93,0.153
			c-0.398,0.064-0.847,0.124-1.346,0.18s-1.041,0.106-1.624,0.153c-0.583,0.046-1.161,0.069-1.734,0.069
			c-0.814,0-1.563-0.084-2.248-0.25c-0.685-0.167-1.276-0.431-1.776-0.791c-0.5-0.361-0.888-0.837-1.166-1.43
			c-0.278-0.592-0.417-1.304-0.417-2.137c0-0.795,0.162-1.479,0.486-2.054c0.323-0.573,0.763-1.036,1.318-1.388
			c0.555-0.351,1.203-0.61,1.943-0.776c0.74-0.167,1.517-0.25,2.331-0.25c0.259,0,0.527,0.014,0.805,0.041
			c0.277,0.028,0.541,0.065,0.791,0.111c0.25,0.047,0.467,0.088,0.652,0.125c0.185,0.037,0.314,0.065,0.389,0.083v-0.722
			c0-0.425-0.046-0.846-0.139-1.263c-0.093-0.416-0.259-0.786-0.5-1.109c-0.241-0.324-0.569-0.583-0.985-0.777
			c-0.417-0.194-0.958-0.292-1.624-0.292c-0.851,0-1.596,0.061-2.234,0.181c-0.639,0.121-1.115,0.245-1.43,0.375l-0.305-2.137
			c0.333-0.148,0.888-0.292,1.665-0.431C102.755,29.63,103.597,29.561,104.504,29.561z M104.726,42.493
			c0.611,0,1.152-0.014,1.624-0.042c0.472-0.027,0.865-0.078,1.18-0.152v-4.302c-0.185-0.092-0.486-0.171-0.902-0.235
			c-0.417-0.065-0.921-0.098-1.513-0.098c-0.389,0-0.8,0.028-1.235,0.083c-0.435,0.056-0.833,0.172-1.193,0.348
			s-0.662,0.416-0.902,0.721c-0.241,0.306-0.361,0.708-0.361,1.208c0,0.925,0.295,1.567,0.888,1.929
			C102.903,42.313,103.708,42.493,104.726,42.493z"/>
		<path fill="#FFFFFF" d="M125.818,43.937c-0.593,0.148-1.374,0.305-2.345,0.472c-0.971,0.166-2.095,0.25-3.372,0.25
			c-1.11,0-2.044-0.162-2.803-0.486c-0.759-0.323-1.37-0.781-1.832-1.373c-0.462-0.593-0.795-1.291-0.999-2.096
			s-0.305-1.697-0.305-2.678v-8.104h2.581v7.549c0,1.758,0.277,3.016,0.833,3.774s1.489,1.138,2.803,1.138
			c0.278,0,0.564-0.009,0.86-0.027s0.573-0.042,0.833-0.069c0.259-0.028,0.495-0.056,0.708-0.083
			c0.212-0.028,0.365-0.061,0.458-0.098V29.921h2.581V43.937z"/>
		<path fill="#FFFFFF" d="M130.257,30.338c0.592-0.148,1.378-0.306,2.359-0.472c0.98-0.167,2.109-0.25,3.386-0.25
			c1.147,0,2.1,0.162,2.858,0.485c0.759,0.324,1.364,0.777,1.817,1.36c0.453,0.582,0.773,1.281,0.958,2.095
			c0.185,0.814,0.278,1.712,0.278,2.692v8.104h-2.582v-7.549c0-0.888-0.061-1.646-0.18-2.275c-0.121-0.629-0.319-1.138-0.597-1.526
			c-0.277-0.389-0.648-0.671-1.11-0.847c-0.463-0.176-1.037-0.264-1.721-0.264c-0.277,0-0.564,0.01-0.86,0.027
			c-0.296,0.02-0.579,0.042-0.847,0.07c-0.268,0.027-0.509,0.06-0.721,0.097c-0.213,0.037-0.366,0.065-0.458,0.083v12.184h-2.581
			V30.338z"/>
		<path fill="#FFFFFF" d="M155.512,23.261l2.581-0.444v21.12c-0.593,0.166-1.351,0.333-2.276,0.499
			c-0.925,0.167-1.988,0.25-3.191,0.25c-1.109,0-2.108-0.176-2.996-0.527c-0.889-0.352-1.647-0.851-2.276-1.499
			c-0.629-0.646-1.114-1.438-1.457-2.372s-0.513-1.984-0.513-3.15c0-1.11,0.143-2.127,0.43-3.053
			c0.287-0.925,0.707-1.721,1.263-2.387c0.555-0.666,1.235-1.184,2.04-1.554s1.725-0.556,2.762-0.556
			c0.832,0,1.567,0.111,2.205,0.333c0.639,0.223,1.115,0.436,1.43,0.639V23.261z M155.512,32.974
			c-0.314-0.259-0.768-0.508-1.359-0.749c-0.593-0.24-1.24-0.36-1.943-0.36c-0.74,0-1.373,0.134-1.9,0.402s-0.958,0.638-1.291,1.109
			c-0.333,0.473-0.574,1.032-0.721,1.68c-0.148,0.647-0.223,1.342-0.223,2.081c0,1.684,0.416,2.983,1.249,3.899
			s1.942,1.374,3.33,1.374c0.703,0,1.29-0.032,1.763-0.098c0.471-0.064,0.836-0.134,1.096-0.208V32.974z"/>
	</g>
	<g enable-background="new    ">
		<path fill="#FFFFFF" d="M167.863,29.616c0.222,0,0.477,0.014,0.764,0.041c0.286,0.028,0.568,0.065,0.846,0.111
			c0.277,0.047,0.531,0.093,0.764,0.139c0.23,0.047,0.402,0.088,0.514,0.125l-0.445,2.248c-0.203-0.074-0.541-0.162-1.012-0.264
			c-0.473-0.102-1.078-0.152-1.818-0.152c-0.481,0-0.957,0.051-1.43,0.152c-0.471,0.102-0.781,0.171-0.93,0.208v12.128h-2.58v-13.82
			c0.609-0.223,1.369-0.431,2.275-0.625S166.734,29.616,167.863,29.616z"/>
	</g>
	<g enable-background="new    ">
		<path fill="#FFFFFF" d="M172.107,47.045c0.203,0.092,0.467,0.18,0.791,0.264c0.323,0.083,0.643,0.124,0.957,0.124
			c1.018,0,1.813-0.227,2.387-0.68c0.574-0.453,1.092-1.188,1.555-2.206c-1.166-2.221-2.253-4.574-3.262-7.063
			c-1.008-2.487-1.846-5.009-2.512-7.563h2.775c0.204,0.833,0.449,1.73,0.736,2.692c0.286,0.962,0.605,1.952,0.957,2.97
			s0.73,2.035,1.138,3.053s0.833,1.998,1.276,2.941c0.703-1.942,1.314-3.866,1.832-5.772c0.518-1.905,1.008-3.866,1.471-5.884h2.664
			c-0.666,2.72-1.406,5.334-2.22,7.841c-0.814,2.507-1.692,4.852-2.637,7.035c-0.37,0.832-0.754,1.549-1.151,2.15
			c-0.398,0.602-0.838,1.097-1.318,1.485c-0.481,0.388-1.022,0.675-1.623,0.86c-0.602,0.185-1.281,0.277-2.041,0.277
			c-0.203,0-0.416-0.015-0.638-0.042s-0.439-0.065-0.651-0.111c-0.213-0.046-0.408-0.097-0.584-0.152s-0.301-0.102-0.374-0.139
			L172.107,47.045z"/>
	</g>
	<g enable-background="new    ">
		<path fill="#FFFFFF" d="M187.788,30.504c0.536-0.147,1.258-0.314,2.165-0.499c0.906-0.186,2.016-0.278,3.33-0.278
			c1.092,0,2.002,0.158,2.733,0.473s1.313,0.763,1.749,1.346c0.434,0.583,0.744,1.281,0.93,2.095
			c0.184,0.814,0.277,1.712,0.277,2.692v8.021h-1.805v-7.438c0-1.018-0.068-1.878-0.207-2.581c-0.14-0.703-0.371-1.276-0.694-1.721
			c-0.324-0.444-0.749-0.764-1.276-0.957c-0.527-0.194-1.189-0.292-1.984-0.292c-0.852,0-1.587,0.047-2.207,0.139
			c-0.619,0.093-1.021,0.176-1.207,0.25v12.6h-1.804V30.504z"/>
		<path fill="#FFFFFF" d="M202.719,37.165c0-1.259,0.18-2.354,0.541-3.289c0.36-0.934,0.832-1.716,1.415-2.345
			s1.249-1.097,1.998-1.402c0.749-0.305,1.522-0.457,2.317-0.457c1.758,0,3.159,0.573,4.205,1.721
			c1.045,1.146,1.567,2.913,1.567,5.3c0,0.148-0.005,0.297-0.014,0.444c-0.01,0.148-0.023,0.287-0.042,0.416h-10.074
			c0.056,1.759,0.49,3.108,1.305,4.053c0.814,0.943,2.109,1.415,3.885,1.415c0.98,0,1.758-0.093,2.332-0.277
			c0.573-0.185,0.989-0.343,1.248-0.472l0.334,1.554c-0.26,0.148-0.745,0.324-1.457,0.527c-0.713,0.203-1.551,0.306-2.512,0.306
			c-1.259,0-2.332-0.186-3.219-0.556c-0.889-0.37-1.62-0.888-2.193-1.554s-0.99-1.457-1.248-2.373
			C202.848,39.26,202.719,38.257,202.719,37.165z M212.903,36.026c-0.037-1.498-0.388-2.664-1.055-3.496
			c-0.666-0.833-1.609-1.249-2.831-1.249c-0.647,0-1.226,0.13-1.734,0.389s-0.953,0.605-1.332,1.04
			c-0.379,0.436-0.676,0.939-0.888,1.513c-0.213,0.574-0.338,1.176-0.375,1.804H212.903z"/>
		<path fill="#FFFFFF" d="M223.672,29.727c0.592,0,1.151,0.047,1.679,0.14s0.893,0.185,1.097,0.277l-0.361,1.554
			c-0.148-0.073-0.449-0.152-0.902-0.235c-0.453-0.084-1.05-0.125-1.789-0.125c-0.777,0-1.402,0.056-1.874,0.166
			c-0.472,0.111-0.782,0.204-0.93,0.277v12.572h-1.804V30.671c0.463-0.204,1.101-0.412,1.915-0.625
			C221.516,29.834,222.506,29.727,223.672,29.727z"/>
		<path fill="#FFFFFF" d="M240.572,43.908c-0.537,0.186-1.221,0.361-2.054,0.527c-0.833,0.167-1.888,0.25-3.163,0.25
			c-1.055,0-2.013-0.171-2.873-0.514c-0.86-0.342-1.601-0.837-2.221-1.484c-0.619-0.647-1.101-1.434-1.442-2.359
			c-0.343-0.925-0.514-1.97-0.514-3.136c0-1.092,0.144-2.096,0.431-3.011c0.286-0.916,0.707-1.707,1.262-2.373
			c0.556-0.666,1.235-1.184,2.041-1.555c0.805-0.369,1.725-0.555,2.761-0.555c0.943,0,1.763,0.135,2.456,0.402
			c0.693,0.269,1.197,0.523,1.513,0.764v-7.716l1.804-0.333V43.908z M238.769,32.613c-0.167-0.129-0.375-0.268-0.624-0.416
			c-0.25-0.148-0.542-0.287-0.875-0.417c-0.333-0.129-0.693-0.235-1.082-0.318c-0.389-0.084-0.796-0.125-1.221-0.125
			c-0.889,0-1.634,0.157-2.234,0.472c-0.602,0.314-1.088,0.735-1.457,1.263c-0.371,0.527-0.639,1.147-0.805,1.859
			c-0.167,0.712-0.25,1.467-0.25,2.262c0,1.887,0.472,3.335,1.415,4.344c0.944,1.008,2.192,1.512,3.747,1.512
			c0.888,0,1.604-0.041,2.15-0.125c0.546-0.083,0.957-0.171,1.235-0.264V32.613z"/>
		<path fill="#FFFFFF" d="M248.287,43.076c1.036,0,1.893-0.171,2.567-0.514c0.675-0.342,1.013-0.92,1.013-1.734
			c0-0.389-0.061-0.722-0.18-0.999c-0.121-0.277-0.319-0.527-0.598-0.75c-0.277-0.222-0.643-0.434-1.096-0.638
			c-0.453-0.203-1.013-0.444-1.679-0.722c-0.537-0.222-1.046-0.448-1.526-0.68c-0.481-0.231-0.906-0.5-1.277-0.805
			c-0.369-0.306-0.666-0.671-0.888-1.097s-0.333-0.943-0.333-1.554c0-1.166,0.439-2.109,1.318-2.831s2.086-1.082,3.621-1.082
			c0.98,0,1.791,0.083,2.429,0.249c0.639,0.167,1.087,0.315,1.347,0.444l-0.417,1.609c-0.222-0.11-0.597-0.259-1.124-0.443
			c-0.527-0.186-1.3-0.278-2.316-0.278c-0.408,0-0.791,0.043-1.152,0.126s-0.68,0.213-0.957,0.39
			c-0.277,0.176-0.5,0.398-0.666,0.667c-0.167,0.269-0.25,0.598-0.25,0.987c0,0.389,0.073,0.723,0.222,1.001
			c0.147,0.278,0.365,0.523,0.652,0.737c0.286,0.213,0.638,0.412,1.055,0.596c0.416,0.185,0.892,0.387,1.429,0.607
			c0.555,0.222,1.087,0.447,1.596,0.677c0.51,0.23,0.958,0.508,1.346,0.831c0.389,0.324,0.703,0.713,0.944,1.166
			c0.24,0.453,0.36,1.022,0.36,1.707c0,1.295-0.485,2.275-1.457,2.941c-0.971,0.666-2.299,0.999-3.982,0.999
			c-1.258,0-2.22-0.106-2.886-0.319c-0.666-0.212-1.11-0.374-1.333-0.485l0.473-1.638c0.055,0.037,0.176,0.098,0.361,0.181
			c0.184,0.083,0.434,0.176,0.748,0.277s0.689,0.19,1.125,0.264C247.209,43.039,247.714,43.076,248.287,43.076z"/>
	</g>
	<g>
		<path fill="#FCFCFC" d="M273.266,19.023h-0.52c0,1.813-0.732,3.449-1.922,4.637c-1.188,1.187-2.822,1.919-4.635,1.919
			c-1.813,0-3.447-0.732-4.639-1.919c-1.188-1.188-1.92-2.824-1.92-4.637c0-1.812,0.732-3.447,1.92-4.636
			c1.189-1.188,2.824-1.92,4.639-1.921c1.813,0,3.447,0.733,4.635,1.921c1.189,1.188,1.922,2.824,1.922,4.636H273.266h0.521
			c-0.001-4.196-3.4-7.597-7.598-7.598c-4.196,0.001-7.6,3.402-7.6,7.598c0,4.197,3.401,7.598,7.6,7.598
			c4.195,0,7.597-3.401,7.598-7.598H273.266z"/>
	</g>
	<g enable-background="new    ">
		<path fill="#FFFFFF" d="M264.972,16.207v0.624h-1.619v4.522h-0.72v-4.522h-1.619v-0.624H264.972z"/>
		<path fill="#FFFFFF" d="M268.039,20.641c-0.05-0.119-0.115-0.27-0.197-0.453c-0.082-0.183-0.17-0.381-0.264-0.594
			s-0.194-0.433-0.301-0.657c-0.106-0.226-0.207-0.438-0.301-0.639c-0.094-0.201-0.182-0.38-0.264-0.539
			c-0.082-0.158-0.147-0.279-0.197-0.363c-0.054,0.584-0.099,1.217-0.133,1.897c-0.035,0.681-0.064,1.367-0.09,2.061h-0.705
			c0.02-0.445,0.042-0.895,0.066-1.348c0.025-0.453,0.054-0.898,0.086-1.337s0.066-0.865,0.104-1.281s0.078-0.81,0.123-1.181h0.631
			c0.134,0.218,0.277,0.476,0.432,0.772c0.152,0.297,0.307,0.607,0.46,0.932s0.302,0.648,0.445,0.973
			c0.144,0.325,0.274,0.62,0.394,0.888c0.119-0.268,0.25-0.563,0.394-0.888c0.144-0.324,0.292-0.648,0.446-0.973
			c0.152-0.324,0.307-0.635,0.46-0.932s0.297-0.555,0.431-0.772h0.631c0.169,1.658,0.295,3.374,0.379,5.146h-0.705
			c-0.025-0.693-0.055-1.38-0.09-2.061c-0.034-0.681-0.078-1.313-0.133-1.897c-0.05,0.084-0.115,0.205-0.197,0.363
			c-0.082,0.159-0.17,0.338-0.264,0.539c-0.094,0.2-0.194,0.413-0.301,0.639c-0.106,0.225-0.207,0.444-0.301,0.657
			s-0.182,0.411-0.264,0.594c-0.082,0.184-0.146,0.334-0.197,0.453H268.039z"/>
	</g>
</g>
</svg>
