<?xml version="1.0" encoding="utf-8"?>
<!-- Generator: Adobe Illustrator 16.0.0, SVG Export Plug-In . SVG Version: 6.00 Build 0)  -->
<!DOCTYPE svg PUBLIC "-//W3C//DTD SVG 1.1//EN" "http://www.w3.org/Graphics/SVG/1.1/DTD/svg11.dtd">
<svg version="1.1" id="Layer_1" xmlns="http://www.w3.org/2000/svg" xmlns:xlink="http://www.w3.org/1999/xlink" x="0px" y="0px"
	 width="16px" height="16px" viewBox="0 0 16 16" enable-background="new 0 0 16 16" xml:space="preserve">
<g>
	<path fill="#FFFFFF" d="M10.2,12.517c0,0.521-0.343,0.943-0.765,0.943H1.293c-0.421,0-0.763-0.423-0.763-0.943V3.493
		c0-0.521,0.342-0.943,0.763-0.943h8.142c0.422,0,0.765,0.422,0.765,0.943V12.517L10.2,12.517z"/>
	<path fill="#0091C7" d="M2.754,9.748c0,0,1.029,0.375,1.402,0.21c0.373-0.166,2.052-0.92,2.197-1.185
		c0.145-0.265,1.538-0.474,1.723-0.195s-0.11,1.369-0.163,1.463s-0.903,1.408-1.59,1.545c-0.688,0.138-2.119,0.196-2.942-0.607
		C2.558,10.174,2.754,9.748,2.754,9.748"/>
	<path fill="#010101" d="M5.312,11.785c-1.591,0-2.884-1.294-2.884-2.886c0-1.59,1.294-2.884,2.884-2.884
		c1.591,0,2.885,1.293,2.885,2.884C8.197,10.491,6.903,11.785,5.312,11.785z M5.312,6.237c-1.468,0-2.663,1.195-2.663,2.662
		c0,1.469,1.194,2.663,2.663,2.663s2.663-1.194,2.663-2.663C7.975,7.432,6.78,6.237,5.312,6.237z"/>
	<path fill="#010101" d="M6.707,3.298v0.087c0.091,0,0.173,0.037,0.233,0.097C7,3.542,7.037,3.624,7.037,3.715S7,3.888,6.94,3.948
		S6.798,4.044,6.707,4.044c-0.092,0-0.173-0.036-0.233-0.096c-0.06-0.06-0.097-0.142-0.097-0.233s0.037-0.173,0.097-0.233
		c0.06-0.06,0.142-0.097,0.233-0.097V3.298V3.211c-0.279,0-0.504,0.226-0.504,0.504c0,0.278,0.225,0.503,0.504,0.503
		c0.278,0,0.503-0.226,0.503-0.503c0-0.278-0.225-0.503-0.503-0.504V3.298z"/>
	<path fill="#010101" d="M8.331,3.298v0.087c0.091,0,0.173,0.037,0.233,0.097C8.623,3.542,8.66,3.624,8.66,3.715
		S8.623,3.888,8.564,3.948c-0.06,0.06-0.142,0.096-0.233,0.096c-0.092,0-0.173-0.036-0.234-0.096
		c-0.059-0.06-0.096-0.142-0.096-0.233s0.037-0.173,0.096-0.233c0.061-0.06,0.142-0.097,0.234-0.097V3.298V3.211
		c-0.278,0-0.504,0.226-0.504,0.504c0,0.278,0.226,0.503,0.504,0.503c0.278,0,0.503-0.226,0.503-0.503
		c0-0.278-0.225-0.503-0.503-0.504V3.298z"/>
	<path fill="#010101" d="M12.374,6.126v0.092c0.742,0,1.412,0.3,1.896,0.786c0.487,0.485,0.787,1.155,0.787,1.896
		c0,0.742-0.3,1.412-0.787,1.896c-0.484,0.486-1.154,0.786-1.896,0.786c-0.74,0-1.41-0.3-1.895-0.786
		c-0.487-0.484-0.787-1.154-0.787-1.896c0-0.741,0.3-1.41,0.787-1.896c0.484-0.485,1.154-0.786,1.895-0.786V6.126V6.034
		c-1.581,0-2.864,1.283-2.864,2.865c0,1.583,1.283,2.866,2.864,2.866c1.583,0,2.867-1.283,2.867-2.866
		c0-1.582-1.284-2.865-2.867-2.865V6.126z"/>
	<path fill="#010101" d="M3.085,3.803H2.998c0,0.043-0.021,0.084-0.063,0.12C2.893,3.958,2.83,3.981,2.76,3.981H2.2
		c-0.07,0-0.133-0.024-0.175-0.059c-0.042-0.035-0.063-0.076-0.063-0.12V3.657c0-0.044,0.021-0.085,0.063-0.12
		C2.067,3.502,2.129,3.479,2.2,3.479H2.76c0.07,0,0.133,0.023,0.175,0.058c0.042,0.035,0.063,0.076,0.063,0.12v0.146H3.085h0.087
		V3.657c0-0.104-0.053-0.194-0.127-0.255C2.969,3.34,2.869,3.305,2.76,3.305H2.2c-0.109,0-0.209,0.036-0.284,0.097
		C1.84,3.462,1.788,3.553,1.788,3.657v0.146c0,0.103,0.052,0.194,0.128,0.255C1.991,4.119,2.091,4.155,2.2,4.155H2.76
		c0.108,0,0.209-0.036,0.285-0.097C3.12,3.997,3.172,3.906,3.172,3.803H3.085z"/>
	<path fill="#010101" d="M10.125,10.687l0.012,1.576v-0.001c0,0.324-0.137,0.616-0.363,0.83c-0.225,0.215-0.536,0.349-0.882,0.349
		H1.897c-0.346,0-0.658-0.134-0.882-0.349c-0.226-0.214-0.362-0.506-0.362-0.83V3.738c0-0.324,0.137-0.616,0.362-0.831
		C1.24,2.694,1.551,2.561,1.897,2.561h6.994c0.346,0,0.658,0.133,0.882,0.347C10,3.122,10.137,3.415,10.137,3.738V7.1h0.245V3.738
		c0-0.395-0.168-0.752-0.438-1.009c-0.27-0.256-0.643-0.415-1.052-0.415H1.897c-0.41,0-0.781,0.158-1.051,0.415
		C0.576,2.986,0.407,3.344,0.407,3.738v8.523c0,0.396,0.169,0.753,0.439,1.009c0.27,0.257,0.642,0.414,1.051,0.414h6.994
		c0.41,0,0.783-0.157,1.052-0.414c0.271-0.256,0.438-0.613,0.438-1.009v-0.001l-0.013-1.576L10.125,10.687z"/>
	<polyline fill="#010101" points="0.581,4.964 10.2,4.964 10.2,4.78 0.581,4.78 	"/>
	<path fill="#010101" d="M2.656,9.764c0.129-0.02,0.246,0.068,0.362,0.112c0.119,0.047,0.246,0.07,0.372,0.093
		c0.236,0.041,0.486,0.038,0.723,0.006C4.587,9.91,4.981,9.742,5.381,9.483C6.14,8.995,6.962,8.169,7.935,8.574
		c0.099,0.042,0.143-0.121,0.044-0.162C7.098,8.045,6.313,8.63,5.618,9.118C5.224,9.397,4.829,9.654,4.354,9.765
		C4.021,9.842,3.674,9.849,3.339,9.79c-0.25-0.042-0.471-0.228-0.728-0.188C2.505,9.618,2.55,9.78,2.656,9.764z"/>
	<path d="M8.139,9.059L8.126,9.05L8.139,9.059L8.139,9.059L8.126,9.05L8.139,9.059c0.002-0.003,0.076-0.104,0.197-0.204
		C8.397,8.805,8.469,8.757,8.55,8.722c0.08-0.036,0.167-0.058,0.26-0.058c0.102,0,0.212,0.026,0.333,0.098
		c0.12,0.071,0.252,0.188,0.39,0.373L9.671,9.03C9.523,8.833,9.378,8.698,9.231,8.612C9.086,8.525,8.942,8.49,8.81,8.49
		c-0.124,0-0.237,0.031-0.336,0.075C8.325,8.632,8.208,8.729,8.126,8.81C8.045,8.891,7.999,8.954,7.997,8.958L8.139,9.059z"/>
	<path d="M15.167,9.028c0.103,0,0.207,0,0.311,0c0.154,0,0.154-0.239,0-0.239c-0.104,0-0.208,0-0.311,0
		C15.013,8.789,15.013,9.028,15.167,9.028z"/>
	<path d="M2.118,8.949c0.103,0,0.207,0,0.31,0c0.154,0,0.154-0.239,0-0.239c-0.104,0-0.208,0-0.31,0
		C1.962,8.71,1.962,8.949,2.118,8.949z"/>
	<ellipse fill="#FFFFFF" cx="12.381" cy="8.903" rx="2.684" ry="2.724"/>
</g>
</svg>
