<?xml version="1.0" encoding="utf-8"?>
<!-- Generator: Adobe Illustrator 16.0.0, SVG Export Plug-In . SVG Version: 6.00 Build 0)  -->
<!DOCTYPE svg PUBLIC "-//W3C//DTD SVG 1.1//EN" "http://www.w3.org/Graphics/SVG/1.1/DTD/svg11.dtd">
<svg version="1.1" id="Capa_1" xmlns="http://www.w3.org/2000/svg" xmlns:xlink="http://www.w3.org/1999/xlink" x="0px" y="0px"
	 width="512px" height="512px" viewBox="0 0 512 512" enable-background="new 0 0 512 512" xml:space="preserve">
<g>
	<path fill="#C9C9C9" d="M471.896,271.212v-15.245c0-7.432-2.972-14.554-8.256-19.781l-81.978-81.108
		c-5.209-5.155-12.242-8.045-19.571-8.045h-41.36V131.52c0-11.526-9.344-20.87-20.87-20.87H60.974
		c-11.526,0-20.87,9.343-20.87,20.87v139.692H471.896z M345.287,174.371c0-1.808,1.462-3.269,3.27-3.269h15.097
		c0.834,0,1.669,0.348,2.296,0.904l64.207,61.287c2.158,2.018,0.695,5.635-2.225,5.635h-79.374c-1.808,0-3.27-1.46-3.27-3.27
		L345.287,174.371L345.287,174.371z M471.896,282.742v46.204c0,11.524-9.343,20.867-20.869,20.867h-22.331
		c-4.033-27.688-27.896-48.973-56.694-48.973c-28.73,0-52.591,21.285-56.626,48.973H202.192
		c-4.034-27.688-27.896-48.973-56.626-48.973s-52.591,21.285-56.626,48.973H60.974c-11.526,0.001-20.87-9.342-20.87-20.867v-46.202
		h431.792V282.742z M372.03,314.78c-23.906,0-43.286,19.38-43.286,43.286c0,23.905,19.381,43.284,43.286,43.284
		s43.285-19.379,43.285-43.284C415.315,334.16,395.936,314.78,372.03,314.78z M372.03,379.709c-11.952,0-21.643-9.689-21.643-21.643
		c0-11.954,9.688-21.642,21.643-21.642c11.952,0,21.644,9.688,21.644,21.642C393.674,370.02,383.982,379.709,372.03,379.709z
		 M145.557,314.78c-23.906,0-43.285,19.38-43.285,43.286c0,23.905,19.38,43.284,43.285,43.284c23.906,0,43.285-19.379,43.285-43.284
		C188.842,334.16,169.463,314.78,145.557,314.78z M145.557,379.709c-11.952,0-21.643-9.689-21.643-21.643
		c0-11.954,9.69-21.642,21.643-21.642c11.953,0,21.643,9.688,21.643,21.642C167.2,370.02,157.51,379.709,145.557,379.709z"/>
</g>
</svg>
