<?xml version="1.0" encoding="utf-8"?>
<!-- Generator: Adobe Illustrator 16.0.0, SVG Export Plug-In . SVG Version: 6.00 Build 0)  -->
<!DOCTYPE svg PUBLIC "-//W3C//DTD SVG 1.1//EN" "http://www.w3.org/Graphics/SVG/1.1/DTD/svg11.dtd">
<svg version="1.1" id="Capa_1" xmlns="http://www.w3.org/2000/svg" xmlns:xlink="http://www.w3.org/1999/xlink" x="0px" y="0px"
	 width="512px" height="512px" viewBox="0 0 512 512" enable-background="new 0 0 512 512" xml:space="preserve">
<g>
	<g>
		<rect x="79.052" y="47.349" fill="#BFBFBF" width="355.11" height="53.267"/>
		<rect x="327.078" y="118.371" fill="#BFBFBF" width="35.512" height="17.756"/>
		<rect x="380.345" y="118.371" fill="#BFBFBF" width="17.756" height="17.756"/>
		<rect x="96.257" y="118.371" fill="#BFBFBF" width="17.756" height="17.756"/>
		<path fill="#BFBFBF" d="M78.501,473.48h355.11V153.882H78.501V473.48z M256.056,224.904c58.825,0,106.534,47.708,106.534,106.533
			S314.88,437.97,256.056,437.97s-106.533-47.709-106.533-106.533S197.232,224.904,256.056,224.904z"/>
		<path fill="#BFBFBF" d="M256.056,420.214c49.022,0,88.777-39.755,88.777-88.777s-39.755-88.777-88.777-88.777
			c-49.022,0-88.777,39.755-88.777,88.777S207.033,420.214,256.056,420.214z M256.056,269.293c34.322,0,62.145,27.821,62.145,62.144
			s-27.823,62.144-62.145,62.144c-34.321,0-62.144-27.821-62.144-62.144S221.735,269.293,256.056,269.293z"/>
	</g>
</g>
</svg>
